<svg xmlns="http://www.w3.org/2000/svg" xmlns:xlink="http://www.w3.org/1999/xlink" version="1.1" id="Layer_1" x="0px" y="0px" width="100%" height="100%" viewBox="0 0 64 64" enable-background="new 0 0 64 64" xml:space="preserve">
<path fill="none" stroke="#000000" stroke-width="2" stroke-miterlimit="10" d="M1,32A31,31 0,1,1 63,32A31,31 0,1,1 1,32" style="stroke-dasharray: 195, 197; stroke-dashoffset: 0;"/>
<path fill="none" stroke="#000000" stroke-width="2" stroke-miterlimit="10" d="M17,32A15,15 0,1,1 47,32A15,15 0,1,1 17,32" style="stroke-dasharray: 95, 97; stroke-dashoffset: 0;"/>
<path fill="none" stroke="#000000" stroke-width="2" stroke-miterlimit="10" d="M26,18L26,1" style="stroke-dasharray: 17, 19; stroke-dashoffset: 0;"/>
<path fill="none" stroke="#000000" stroke-width="2" stroke-miterlimit="10" d="M38,18L38,1" style="stroke-dasharray: 17, 19; stroke-dashoffset: 0;"/>
<path fill="none" stroke="#000000" stroke-width="2" stroke-miterlimit="10" d="M26,63L26,46" style="stroke-dasharray: 17, 19; stroke-dashoffset: 0;"/>
<path fill="none" stroke="#000000" stroke-width="2" stroke-miterlimit="10" d="M38,63L38,46" style="stroke-dasharray: 17, 19; stroke-dashoffset: 0;"/>
<path fill="none" stroke="#000000" stroke-width="2" stroke-miterlimit="10" d="M46,26L63,26" style="stroke-dasharray: 17, 19; stroke-dashoffset: 0;"/>
<path fill="none" stroke="#000000" stroke-width="2" stroke-miterlimit="10" d="M46,38L63,38" style="stroke-dasharray: 17, 19; stroke-dashoffset: 0;"/>
<path fill="none" stroke="#000000" stroke-width="2" stroke-miterlimit="10" d="M1,26L18,26" style="stroke-dasharray: 17, 19; stroke-dashoffset: 0;"/>
<path fill="none" stroke="#000000" stroke-width="2" stroke-miterlimit="10" d="M1,38L18,38" style="stroke-dasharray: 17, 19; stroke-dashoffset: 0;"/>
</svg>