<svg xmlns="http://www.w3.org/2000/svg" xmlns:xlink="http://www.w3.org/1999/xlink" version="1.0" id="Layer_1" x="0px" y="0px" width="100%" height="100%" viewBox="0 0 64 64" enable-background="new 0 0 64 64" xml:space="preserve">
<path fill="none" stroke="#000000" stroke-width="2" stroke-miterlimit="10" d="M25,38A19,19 0,1,1 63,38A19,19 0,1,1 25,38" style="stroke-dasharray: 120, 122; stroke-dashoffset: 0;"/>
<path fill="none" stroke="#000000" stroke-width="2" stroke-miterlimit="10" d="M31,38A13,13 0,1,1 57,38A13,13 0,1,1 31,38" style="stroke-dasharray: 82, 84; stroke-dashoffset: 0;"/>
<path fill="none" stroke="#000000" stroke-width="2" stroke-miterlimit="10" d="M30,51L1,51L1,57L38,57L38,56" style="stroke-dasharray: 73, 75; stroke-dashoffset: 0;"/>
<path fill="none" stroke="#000000" stroke-width="2" stroke-miterlimit="10" d="M27,45L3,45L3,51L30,51" style="stroke-dasharray: 57, 59; stroke-dashoffset: 0;"/>
<path fill="none" stroke="#000000" stroke-width="2" stroke-miterlimit="10" d="M26,39L5,39L5,45L27,45" style="stroke-dasharray: 49, 51; stroke-dashoffset: 0;"/>
<path fill="none" stroke="#000000" stroke-width="2" stroke-miterlimit="10" d="M26,33L1,33L1,39L26,39" style="stroke-dasharray: 56, 58; stroke-dashoffset: 0;"/>
<path fill="none" stroke="#000000" stroke-width="2" stroke-miterlimit="10" d="M29,27L3,27L3,33L26,33" style="stroke-dasharray: 55, 57; stroke-dashoffset: 0;"/>
<path fill="none" stroke="#000000" stroke-width="2" stroke-miterlimit="10" d="M35,21L1,21L1,27L29,27" style="stroke-dasharray: 68, 70; stroke-dashoffset: 0;"/>
<path fill="none" stroke="#000000" stroke-width="2" stroke-miterlimit="10" d="M40,20L40,15L3,15L3,21L35,21" style="stroke-dasharray: 80, 82; stroke-dashoffset: 0;"/>
<path fill="none" stroke="#000000" stroke-width="2" stroke-miterlimit="10" width="37" height="6" d="M1 9 L38 9 L38 15 L1 15 Z" style="stroke-dasharray: 86, 88; stroke-dashoffset: 0;"/>
</svg>